# xmcd CD database file
#
# Track frame offsets:
#	150
#	20575
#	32885
#	54360
#	69912
#	83590
#	102190
#	114827
#	133155
#	150380
#	171372
#	186235
#	201502
#	221035
#	236160
#	252895
#	267477
#
# Disc length: 3815 seconds
#
# Revision: 2
# Processed by: cddbd v1.5.2PL0 Copyright (c) Steve Scherf et al.
# Submitted via: CDex 1.51
#
DISCID=f00ee511
DTITLE=CHRISTIAN and RALF - CHRISTIAN and RALF
DYEAR=2001
DGENRE=Country
TTITLE0=BASTA UM OLHAR
TTITLE1=MINHA ESTRELA É VOCÊ
TTITLE2=BIJOUTERIA
TTITLE3=SENTIMENTOS
TTITLE4=VIRA,VIROU
TTITLE5=ALQUIMIA
TTITLE6=SENTIMENTO LOUCO
TTITLE7=ANSIEDADE
TTITLE8=PERDOA
TTITLE9=YOLANDA
TTITLE10=CHARLY
TTITLE11=O IPÊ E O PRISIONEIRO
TTITLE12=UMA CANÇÃO PARA NÓS DOIS
TTITLE13=FERREIRINHA
TTITLE14=BEIJO GELADO
TTITLE15=COM VOCÊ
TTITLE16=CONFIDÊNCIAS
EXTD=YEAR: 2001
EXTT0=
EXTT1=
EXTT2=
EXTT3=
EXTT4=
EXTT5=
EXTT6=
EXTT7=
EXTT8=
EXTT9=
EXTT10=
EXTT11=
EXTT12=
EXTT13=
EXTT14=
EXTT15=
EXTT16=
PLAYORDER=
